<mxfile host="app.diagrams.net" modified="2022-03-02T10:20:49.278Z" agent="5.0 (Windows NT 10.0; Win64; x64) AppleWebKit/537.36 (KHTML, like Gecko) Chrome/98.0.4758.102 Safari/537.36" etag="Od7PeltwkHrAA-oEgjId" version="16.6.4" type="github" pages="2">
  <diagram id="5vsSqb84q_QZbWogajZC" name="磁盘的组成">
    <mxGraphModel dx="1422" dy="831" grid="1" gridSize="10" guides="1" tooltips="1" connect="1" arrows="1" fold="1" page="1" pageScale="1" pageWidth="827" pageHeight="1169" math="0" shadow="0">
      <root>
        <mxCell id="0" />
        <mxCell id="1" parent="0" />
        <mxCell id="EJfGTaMrxrOK7dp7qdmx-1" value="" style="aspect=fixed;perimeter=ellipsePerimeter;html=1;align=center;shadow=0;dashed=0;spacingTop=3;image;image=img/lib/active_directory/hard_disk.svg;" parent="1" vertex="1">
          <mxGeometry x="130" y="260" width="222.22" height="120" as="geometry" />
        </mxCell>
        <mxCell id="EJfGTaMrxrOK7dp7qdmx-12" value="" style="endArrow=classic;html=1;rounded=0;entryX=0;entryY=0.25;entryDx=0;entryDy=0;" parent="1" target="EJfGTaMrxrOK7dp7qdmx-1" edge="1">
          <mxGeometry width="50" height="50" relative="1" as="geometry">
            <mxPoint x="50" y="283" as="sourcePoint" />
            <mxPoint x="170" y="210" as="targetPoint" />
          </mxGeometry>
        </mxCell>
        <mxCell id="EJfGTaMrxrOK7dp7qdmx-13" value="" style="endArrow=classic;html=1;rounded=0;entryX=0;entryY=0.5;entryDx=0;entryDy=0;" parent="1" target="EJfGTaMrxrOK7dp7qdmx-1" edge="1">
          <mxGeometry width="50" height="50" relative="1" as="geometry">
            <mxPoint x="50" y="310" as="sourcePoint" />
            <mxPoint x="120" y="310" as="targetPoint" />
          </mxGeometry>
        </mxCell>
        <mxCell id="EJfGTaMrxrOK7dp7qdmx-14" value="" style="endArrow=classic;html=1;rounded=0;entryX=0;entryY=0.75;entryDx=0;entryDy=0;" parent="1" target="EJfGTaMrxrOK7dp7qdmx-1" edge="1">
          <mxGeometry width="50" height="50" relative="1" as="geometry">
            <mxPoint x="50" y="340" as="sourcePoint" />
            <mxPoint x="60" y="380" as="targetPoint" />
          </mxGeometry>
        </mxCell>
        <mxCell id="EJfGTaMrxrOK7dp7qdmx-15" value="&lt;font style=&quot;font-size: 22px&quot;&gt;磁头&lt;/font&gt;" style="text;html=1;align=center;verticalAlign=middle;resizable=0;points=[];autosize=1;strokeColor=none;fillColor=none;" parent="1" vertex="1">
          <mxGeometry y="310" width="60" height="20" as="geometry" />
        </mxCell>
        <mxCell id="EJfGTaMrxrOK7dp7qdmx-16" value="&lt;font style=&quot;font-size: 22px&quot;&gt;盘面&lt;/font&gt;" style="text;html=1;align=center;verticalAlign=middle;resizable=0;points=[];autosize=1;strokeColor=none;fillColor=none;" parent="1" vertex="1">
          <mxGeometry x="201.11" y="240" width="60" height="20" as="geometry" />
        </mxCell>
        <mxCell id="EJfGTaMrxrOK7dp7qdmx-28" style="edgeStyle=none;rounded=0;orthogonalLoop=1;jettySize=auto;html=1;exitX=0;exitY=0.5;exitDx=0;exitDy=0;endArrow=none;endFill=0;" parent="1" edge="1">
          <mxGeometry relative="1" as="geometry">
            <mxPoint x="460" y="340" as="sourcePoint" />
            <mxPoint x="460" y="340" as="targetPoint" />
          </mxGeometry>
        </mxCell>
        <mxCell id="EJfGTaMrxrOK7dp7qdmx-38" value="" style="ellipse;whiteSpace=wrap;html=1;fontSize=22;fillColor=none;" parent="1" vertex="1">
          <mxGeometry x="145.56" y="270" width="191.1" height="50" as="geometry" />
        </mxCell>
        <mxCell id="EJfGTaMrxrOK7dp7qdmx-39" value="" style="ellipse;whiteSpace=wrap;html=1;fontSize=22;fillColor=none;" parent="1" vertex="1">
          <mxGeometry x="153.89000000000001" y="275" width="174.44" height="40" as="geometry" />
        </mxCell>
        <mxCell id="BpCIJffNfNBBGNPMn_So-11" value="" style="shape=cylinder3;whiteSpace=wrap;html=1;boundedLbl=1;backgroundOutline=1;size=15;lid=0;strokeColor=default;" parent="1" vertex="1">
          <mxGeometry x="540" y="300" width="110" height="60" as="geometry" />
        </mxCell>
        <mxCell id="BpCIJffNfNBBGNPMn_So-12" value="" style="ellipse;whiteSpace=wrap;html=1;strokeColor=default;" parent="1" vertex="1">
          <mxGeometry x="540" y="280" width="110" height="35" as="geometry" />
        </mxCell>
        <mxCell id="BpCIJffNfNBBGNPMn_So-27" style="edgeStyle=none;orthogonalLoop=1;jettySize=auto;html=1;exitX=1;exitY=0.5;exitDx=0;exitDy=0;entryX=1;entryY=0.5;entryDx=0;entryDy=0;fontSize=22;endArrow=none;endFill=0;" parent="1" source="BpCIJffNfNBBGNPMn_So-17" target="BpCIJffNfNBBGNPMn_So-12" edge="1">
          <mxGeometry relative="1" as="geometry" />
        </mxCell>
        <mxCell id="BpCIJffNfNBBGNPMn_So-28" style="edgeStyle=none;orthogonalLoop=1;jettySize=auto;html=1;exitX=1;exitY=0;exitDx=0;exitDy=0;entryX=1;entryY=0;entryDx=0;entryDy=0;fontSize=22;endArrow=none;endFill=0;" parent="1" source="BpCIJffNfNBBGNPMn_So-17" target="BpCIJffNfNBBGNPMn_So-12" edge="1">
          <mxGeometry relative="1" as="geometry" />
        </mxCell>
        <mxCell id="BpCIJffNfNBBGNPMn_So-29" style="edgeStyle=none;orthogonalLoop=1;jettySize=auto;html=1;exitX=1;exitY=1;exitDx=0;exitDy=0;entryX=1;entryY=1;entryDx=0;entryDy=0;fontSize=22;endArrow=none;endFill=0;" parent="1" source="BpCIJffNfNBBGNPMn_So-17" target="BpCIJffNfNBBGNPMn_So-12" edge="1">
          <mxGeometry relative="1" as="geometry" />
        </mxCell>
        <mxCell id="BpCIJffNfNBBGNPMn_So-30" style="edgeStyle=none;orthogonalLoop=1;jettySize=auto;html=1;exitX=0.5;exitY=1;exitDx=0;exitDy=0;fontSize=22;endArrow=none;endFill=0;" parent="1" source="BpCIJffNfNBBGNPMn_So-17" target="BpCIJffNfNBBGNPMn_So-11" edge="1">
          <mxGeometry relative="1" as="geometry" />
        </mxCell>
        <mxCell id="BpCIJffNfNBBGNPMn_So-17" value="" style="ellipse;whiteSpace=wrap;html=1;strokeColor=default;" parent="1" vertex="1">
          <mxGeometry x="551.4399999999999" y="285" width="87.12" height="25" as="geometry" />
        </mxCell>
        <mxCell id="BpCIJffNfNBBGNPMn_So-18" value="" style="endArrow=classic;html=1;curved=1;entryX=0.036;entryY=0.343;entryDx=0;entryDy=0;entryPerimeter=0;" parent="1" target="BpCIJffNfNBBGNPMn_So-12" edge="1">
          <mxGeometry width="50" height="50" relative="1" as="geometry">
            <mxPoint x="480" y="310" as="sourcePoint" />
            <mxPoint x="500" y="380" as="targetPoint" />
          </mxGeometry>
        </mxCell>
        <mxCell id="BpCIJffNfNBBGNPMn_So-19" value="&lt;font style=&quot;font-size: 22px&quot;&gt;磁道&lt;/font&gt;" style="text;html=1;align=center;verticalAlign=middle;resizable=0;points=[];autosize=1;strokeColor=none;fillColor=none;" parent="1" vertex="1">
          <mxGeometry x="430" y="315" width="60" height="20" as="geometry" />
        </mxCell>
        <mxCell id="BpCIJffNfNBBGNPMn_So-21" value="" style="ellipse;whiteSpace=wrap;html=1;strokeColor=default;" parent="1" vertex="1">
          <mxGeometry x="540" y="330" width="110" height="35" as="geometry" />
        </mxCell>
        <mxCell id="BpCIJffNfNBBGNPMn_So-24" style="orthogonalLoop=1;jettySize=auto;html=1;exitX=1;exitY=0.5;exitDx=0;exitDy=0;entryX=1;entryY=0.5;entryDx=0;entryDy=0;fontSize=22;endArrow=none;endFill=0;" parent="1" source="BpCIJffNfNBBGNPMn_So-22" target="BpCIJffNfNBBGNPMn_So-17" edge="1">
          <mxGeometry relative="1" as="geometry" />
        </mxCell>
        <mxCell id="BpCIJffNfNBBGNPMn_So-22" value="" style="ellipse;whiteSpace=wrap;html=1;strokeColor=default;" parent="1" vertex="1">
          <mxGeometry x="551.4399999999999" y="335" width="87.12" height="25" as="geometry" />
        </mxCell>
        <mxCell id="BpCIJffNfNBBGNPMn_So-23" value="" style="endArrow=none;html=1;fontSize=22;curved=1;entryX=0;entryY=0.5;entryDx=0;entryDy=0;exitX=0;exitY=0.5;exitDx=0;exitDy=0;" parent="1" source="BpCIJffNfNBBGNPMn_So-22" target="BpCIJffNfNBBGNPMn_So-17" edge="1">
          <mxGeometry width="50" height="50" relative="1" as="geometry">
            <mxPoint x="600" y="470" as="sourcePoint" />
            <mxPoint x="650" y="420" as="targetPoint" />
          </mxGeometry>
        </mxCell>
        <mxCell id="BpCIJffNfNBBGNPMn_So-25" value="" style="endArrow=classic;html=1;fontSize=22;entryX=1;entryY=0;entryDx=0;entryDy=22.5;entryPerimeter=0;" parent="1" target="BpCIJffNfNBBGNPMn_So-11" edge="1">
          <mxGeometry width="50" height="50" relative="1" as="geometry">
            <mxPoint x="680" y="360" as="sourcePoint" />
            <mxPoint x="740" y="370" as="targetPoint" />
          </mxGeometry>
        </mxCell>
        <mxCell id="BpCIJffNfNBBGNPMn_So-26" value="柱面" style="text;html=1;align=center;verticalAlign=middle;resizable=0;points=[];autosize=1;strokeColor=none;fillColor=none;fontSize=22;" parent="1" vertex="1">
          <mxGeometry x="680" y="360" width="60" height="30" as="geometry" />
        </mxCell>
        <mxCell id="BpCIJffNfNBBGNPMn_So-31" value="" style="endArrow=classic;html=1;fontSize=22;entryX=0.964;entryY=0.314;entryDx=0;entryDy=0;entryPerimeter=0;" parent="1" target="BpCIJffNfNBBGNPMn_So-12" edge="1">
          <mxGeometry width="50" height="50" relative="1" as="geometry">
            <mxPoint x="700" y="270" as="sourcePoint" />
            <mxPoint x="750" y="220" as="targetPoint" />
          </mxGeometry>
        </mxCell>
        <mxCell id="BpCIJffNfNBBGNPMn_So-32" value="扇区" style="text;html=1;align=center;verticalAlign=middle;resizable=0;points=[];autosize=1;strokeColor=none;fillColor=none;fontSize=22;" parent="1" vertex="1">
          <mxGeometry x="700" y="255" width="60" height="30" as="geometry" />
        </mxCell>
      </root>
    </mxGraphModel>
  </diagram>
  <diagram id="unJLF_3GnyKT53i7WckV" name="数据经过过程">
    <mxGraphModel dx="1422" dy="831" grid="1" gridSize="10" guides="1" tooltips="1" connect="1" arrows="1" fold="1" page="1" pageScale="1" pageWidth="827" pageHeight="1169" math="0" shadow="0">
      <root>
        <mxCell id="u_f0v85sn-2usLl4lo-3-0" />
        <mxCell id="u_f0v85sn-2usLl4lo-3-1" parent="u_f0v85sn-2usLl4lo-3-0" />
        <mxCell id="u_f0v85sn-2usLl4lo-3-10" style="edgeStyle=orthogonalEdgeStyle;rounded=0;orthogonalLoop=1;jettySize=auto;html=1;entryX=1;entryY=0.5;entryDx=0;entryDy=0;" edge="1" parent="u_f0v85sn-2usLl4lo-3-1" source="u_f0v85sn-2usLl4lo-3-3" target="u_f0v85sn-2usLl4lo-3-6">
          <mxGeometry relative="1" as="geometry">
            <Array as="points">
              <mxPoint x="630" y="410" />
              <mxPoint x="630" y="410" />
            </Array>
          </mxGeometry>
        </mxCell>
        <mxCell id="u_f0v85sn-2usLl4lo-3-3" value="" style="sketch=0;pointerEvents=1;shadow=0;dashed=0;html=1;strokeColor=none;fillColor=#505050;labelPosition=center;verticalLabelPosition=bottom;verticalAlign=top;outlineConnect=0;align=center;shape=mxgraph.office.devices.hard_disk;" vertex="1" parent="u_f0v85sn-2usLl4lo-3-1">
          <mxGeometry x="670" y="375" width="50" height="70" as="geometry" />
        </mxCell>
        <mxCell id="u_f0v85sn-2usLl4lo-3-7" value="" style="edgeStyle=orthogonalEdgeStyle;rounded=0;orthogonalLoop=1;jettySize=auto;html=1;" edge="1" parent="u_f0v85sn-2usLl4lo-3-1" source="u_f0v85sn-2usLl4lo-3-4" target="u_f0v85sn-2usLl4lo-3-5">
          <mxGeometry relative="1" as="geometry" />
        </mxCell>
        <mxCell id="u_f0v85sn-2usLl4lo-3-4" value="数据块" style="rounded=0;whiteSpace=wrap;html=1;" vertex="1" parent="u_f0v85sn-2usLl4lo-3-1">
          <mxGeometry x="170" y="390" width="80" height="40" as="geometry" />
        </mxCell>
        <mxCell id="u_f0v85sn-2usLl4lo-3-8" value="" style="edgeStyle=orthogonalEdgeStyle;rounded=0;orthogonalLoop=1;jettySize=auto;html=1;" edge="1" parent="u_f0v85sn-2usLl4lo-3-1" source="u_f0v85sn-2usLl4lo-3-5" target="u_f0v85sn-2usLl4lo-3-6">
          <mxGeometry relative="1" as="geometry" />
        </mxCell>
        <mxCell id="u_f0v85sn-2usLl4lo-3-12" style="edgeStyle=orthogonalEdgeStyle;rounded=0;orthogonalLoop=1;jettySize=auto;html=1;entryX=1;entryY=0.75;entryDx=0;entryDy=0;" edge="1" parent="u_f0v85sn-2usLl4lo-3-1" source="u_f0v85sn-2usLl4lo-3-5" target="u_f0v85sn-2usLl4lo-3-4">
          <mxGeometry relative="1" as="geometry">
            <Array as="points">
              <mxPoint x="280" y="420" />
              <mxPoint x="280" y="420" />
            </Array>
          </mxGeometry>
        </mxCell>
        <mxCell id="u_f0v85sn-2usLl4lo-3-5" value="用户态" style="rounded=0;whiteSpace=wrap;html=1;" vertex="1" parent="u_f0v85sn-2usLl4lo-3-1">
          <mxGeometry x="294" y="380" width="120" height="60" as="geometry" />
        </mxCell>
        <mxCell id="u_f0v85sn-2usLl4lo-3-9" value="" style="edgeStyle=orthogonalEdgeStyle;rounded=0;orthogonalLoop=1;jettySize=auto;html=1;" edge="1" parent="u_f0v85sn-2usLl4lo-3-1" source="u_f0v85sn-2usLl4lo-3-6" target="u_f0v85sn-2usLl4lo-3-3">
          <mxGeometry relative="1" as="geometry">
            <Array as="points">
              <mxPoint x="630" y="400" />
              <mxPoint x="630" y="400" />
            </Array>
          </mxGeometry>
        </mxCell>
        <mxCell id="u_f0v85sn-2usLl4lo-3-11" style="edgeStyle=orthogonalEdgeStyle;rounded=0;orthogonalLoop=1;jettySize=auto;html=1;entryX=1;entryY=0.75;entryDx=0;entryDy=0;" edge="1" parent="u_f0v85sn-2usLl4lo-3-1" source="u_f0v85sn-2usLl4lo-3-6" target="u_f0v85sn-2usLl4lo-3-5">
          <mxGeometry relative="1" as="geometry">
            <Array as="points">
              <mxPoint x="460" y="425" />
              <mxPoint x="460" y="425" />
            </Array>
          </mxGeometry>
        </mxCell>
        <mxCell id="u_f0v85sn-2usLl4lo-3-6" value="内核态" style="rounded=0;whiteSpace=wrap;html=1;" vertex="1" parent="u_f0v85sn-2usLl4lo-3-1">
          <mxGeometry x="470" y="380" width="120" height="60" as="geometry" />
        </mxCell>
      </root>
    </mxGraphModel>
  </diagram>
</mxfile>
